<svg width="135" height="38" viewBox="0 0 135 38" fill="none" xmlns="http://www.w3.org/2000/svg">
<g filter="url(#filter0_i)">
<rect width="135" height="38" rx="2" fill="#63A63E"/>
</g>
<path d="M59.3686 23.14C58.9486 23.14 58.5986 23 58.3186 22.72C58.048 22.44 57.8613 22.02 57.7586 21.46L57.4086 19.64C57.3246 19.1827 57.166 18.8607 56.9326 18.674C56.7086 18.478 56.424 18.38 56.0786 18.38H55.5886V23H54.3286V13.2H55.5886V17.4H56.0786C56.6666 17.4 57.0633 16.98 57.2686 16.14L57.6186 14.74C57.7586 14.18 57.964 13.76 58.2346 13.48C58.5053 13.2 58.8366 13.06 59.2286 13.06C59.434 13.06 59.6253 13.0833 59.8026 13.13C59.98 13.1673 60.0686 13.1907 60.0686 13.2V13.83C59.7326 13.83 59.4806 13.9093 59.3126 14.068C59.1446 14.2173 59.0233 14.4413 58.9486 14.74L58.5986 16.14C58.4586 16.7093 58.2953 17.1153 58.1086 17.358C57.922 17.6007 57.6653 17.7687 57.3386 17.862V17.918C57.7213 18.0207 58.0246 18.198 58.2486 18.45C58.4726 18.6927 58.636 19.0893 58.7386 19.64L59.0886 21.46C59.1446 21.7307 59.2613 21.95 59.4386 22.118C59.6253 22.286 59.882 22.37 60.2086 22.37V23C60.2086 23.0093 60.12 23.0327 59.9426 23.07C59.7653 23.1167 59.574 23.14 59.3686 23.14ZM62.7443 23.14C62.3709 23.14 61.9043 23.0467 61.3443 22.86V22.23H62.3243C62.7163 22.23 63.0243 22.0853 63.2483 21.796C63.4816 21.5067 63.6776 20.9747 63.8363 20.2C62.7443 20.2 62.0489 19.64 61.7503 18.52L60.2803 13.2H61.5403L63.0103 18.52C63.0849 18.7627 63.2063 18.954 63.3743 19.094C63.5423 19.2247 63.7569 19.29 64.0183 19.29L65.2503 13.2H66.5103L64.9843 20.76C64.8163 21.6 64.5549 22.2067 64.2003 22.58C63.8549 22.9533 63.3696 23.14 62.7443 23.14ZM67.7681 23V13.2H73.2281V23H71.9681V14.18H69.0281V23H67.7681ZM75.1919 23V13.2H76.4519V20.48H76.5219L79.3219 13.2H80.7919V23H79.5319V15.72H79.4619L76.5919 23H75.1919ZM84.1525 23V14.18H81.9125V13.2H87.6525V14.18H85.4125V23H84.1525ZM91.0081 23.14C90.1401 23.14 89.3934 23.0467 88.7681 22.86V13.2H90.0281V17.19C90.2147 17.1527 90.4434 17.12 90.7141 17.092C90.9847 17.064 91.2227 17.05 91.4281 17.05C92.3521 17.05 93.0241 17.288 93.4441 17.764C93.8734 18.24 94.0881 19.0287 94.0881 20.13C94.0881 20.858 93.9854 21.4413 93.7801 21.88C93.5747 22.3187 93.2481 22.6407 92.8001 22.846C92.3614 23.042 91.7641 23.14 91.0081 23.14ZM91.0081 22.23C91.6521 22.23 92.1141 22.0713 92.3941 21.754C92.6834 21.4273 92.8281 20.886 92.8281 20.13C92.8281 19.374 92.6834 18.8373 92.3941 18.52C92.1141 18.1933 91.6521 18.03 91.0081 18.03H90.0281V22.23H91.0081Z" fill="white"/>
<g opacity="0.3">
<path d="M34.5 25C35.3284 25 36 24.3284 36 23.5C36 22.6716 35.3284 22 34.5 22C33.6716 22 33 22.6716 33 23.5C33 24.3284 33.6716 25 34.5 25Z" fill="white"/>
<path d="M42.5 25C43.3284 25 44 24.3284 44 23.5C44 22.6716 43.3284 22 42.5 22C41.6716 22 41 22.6716 41 23.5C41 24.3284 41.6716 25 42.5 25Z" fill="white"/>
<path d="M45 12H34.07L33.648 10H30V12H32.031L34.016 21H45V19H39.441L45 16.951V12Z" fill="white"/>
</g>
<defs>
<filter id="filter0_i" x="0" y="0" width="135" height="38" filterUnits="userSpaceOnUse" color-interpolation-filters="sRGB">
<feFlood flood-opacity="0" result="BackgroundImageFix"/>
<feBlend mode="normal" in="SourceGraphic" in2="BackgroundImageFix" result="shape"/>
<feColorMatrix in="SourceAlpha" type="matrix" values="0 0 0 0 0 0 0 0 0 0 0 0 0 0 0 0 0 0 127 0" result="hardAlpha"/>
<feOffset dy="-3"/>
<feComposite in2="hardAlpha" operator="arithmetic" k2="-1" k3="1"/>
<feColorMatrix type="matrix" values="0 0 0 0 0.211765 0 0 0 0 0.45098 0 0 0 0 0.0823529 0 0 0 1 0"/>
<feBlend mode="normal" in2="shape" result="effect1_innerShadow"/>
</filter>
</defs>
</svg>
